<svg width="20" height="20" viewBox="0 0 20 20" fill="none" xmlns="http://www.w3.org/2000/svg">
    <path d="M15.0257 13.8475L18.5948 17.4158L17.4157 18.595L13.8473 15.0258C12.5196 16.0901 10.8682 16.669 9.1665 16.6666C5.0265 16.6666 1.6665 13.3066 1.6665 9.16663C1.6665 5.02663 5.0265 1.66663 9.1665 1.66663C13.3065 1.66663 16.6665 5.02663 16.6665 9.16663C16.6689 10.8683 16.09 12.5197 15.0257 13.8475ZM13.354 13.2291C14.4116 12.1415 15.0022 10.6837 14.9998 9.16663C14.9998 5.94413 12.389 3.33329 9.1665 3.33329C5.944 3.33329 3.33317 5.94413 3.33317 9.16663C3.33317 12.3891 5.944 15 9.1665 15C10.6835 15.0023 12.1414 14.4117 13.229 13.3541L13.354 13.2291Z" fill="#989898"/>
    </svg>
    