<svg width="34" height="34" viewBox="0 0 34 34" fill="none" xmlns="http://www.w3.org/2000/svg">
    <g clip-path="url(#clip0_102_798)">
    <path d="M10.1774 0.714294C10.4823 0.714294 10.7749 0.835455 10.9905 1.05112C11.2062 1.26679 11.3274 1.5593 11.3274 1.86429V4.01479H23.6767V1.87908C23.6767 1.57408 23.7979 1.28157 24.0135 1.06591C24.2292 0.850241 24.5217 0.72908 24.8267 0.72908C25.1317 0.72908 25.4242 0.850241 25.6399 1.06591C25.8555 1.28157 25.9767 1.57408 25.9767 1.87908V4.01479H30.4289C31.3 4.01479 32.1355 4.36074 32.7516 4.97658C33.3678 5.59241 33.7141 6.42772 33.7146 7.29887V30.2874C33.7141 31.1585 33.3678 31.9938 32.7516 32.6097C32.1355 33.2255 31.3 33.5714 30.4289 33.5714H4.14314C3.272 33.5714 2.43651 33.2255 1.82037 32.6097C1.20422 31.9938 0.857857 31.1585 0.857422 30.2874L0.857422 7.29887C0.857857 6.42772 1.20422 5.59241 1.82037 4.97658C2.43651 4.36074 3.272 4.01479 4.14314 4.01479H9.02735V1.86265C9.02779 1.55794 9.14914 1.26585 9.36476 1.05054C9.58038 0.835229 9.87264 0.714294 10.1774 0.714294ZM3.15742 13.4333V30.2874C3.15742 30.4168 3.18292 30.545 3.23246 30.6646C3.28199 30.7842 3.3546 30.8928 3.44613 30.9844C3.53766 31.0759 3.64633 31.1485 3.76592 31.198C3.88551 31.2476 4.01369 31.2731 4.14314 31.2731H30.4289C30.5583 31.2731 30.6865 31.2476 30.8061 31.198C30.9257 31.1485 31.0343 31.0759 31.1259 30.9844C31.2174 30.8928 31.29 30.7842 31.3395 30.6646C31.3891 30.545 31.4146 30.4168 31.4146 30.2874V13.4563L3.15742 13.4333ZM11.8104 24.7312V27.4682H9.07171V24.7312H11.8104ZM18.6545 24.7312V27.4682H15.9175V24.7312H18.6545ZM25.5003 24.7312V27.4682H22.7616V24.7312H25.5003ZM11.8104 18.1976V20.9346H9.07171V18.1976H11.8104ZM18.6545 18.1976V20.9346H15.9175V18.1976H18.6545ZM25.5003 18.1976V20.9346H22.7616V18.1976H25.5003ZM9.02735 6.31315H4.14314C4.01369 6.31315 3.88551 6.33865 3.76592 6.38818C3.64633 6.43772 3.53766 6.51033 3.44613 6.60186C3.3546 6.69339 3.28199 6.80206 3.23246 6.92165C3.18292 7.04124 3.15742 7.16942 3.15742 7.29887V11.1349L31.4146 11.1579V7.29887C31.4146 7.16942 31.3891 7.04124 31.3395 6.92165C31.29 6.80206 31.2174 6.69339 31.1259 6.60186C31.0343 6.51033 30.9257 6.43772 30.8061 6.38818C30.6865 6.33865 30.5583 6.31315 30.4289 6.31315H25.9767V7.83937C25.9767 8.14436 25.8555 8.43687 25.6399 8.65254C25.4242 8.86821 25.1317 8.98937 24.8267 8.98937C24.5217 8.98937 24.2292 8.86821 24.0135 8.65254C23.7979 8.43687 23.6767 8.14436 23.6767 7.83937V6.31315H11.3274V7.82458C11.3274 8.12958 11.2062 8.42209 10.9905 8.63775C10.7749 8.85342 10.4823 8.97458 10.1774 8.97458C9.87235 8.97458 9.57984 8.85342 9.36418 8.63775C9.14851 8.42209 9.02735 8.12958 9.02735 7.82458V6.31315Z" fill="#ECECEC"/>
    </g>
    <defs>
    <clipPath id="clip0_102_798">
    <rect width="32.8571" height="32.8571" fill="white" transform="translate(0.857422 0.714294)"/>
    </clipPath>
    </defs>
    </svg>
    