<svg width="45" height="45" viewBox="0 0 45 45" fill="none" xmlns="http://www.w3.org/2000/svg">
    <g clip-path="url(#clip0_102_787)">
    <g clip-path="url(#clip1_102_787)">
    <path d="M18.673 12C18.8587 12 19.0367 12.0737 19.168 12.205C19.2993 12.3363 19.373 12.5143 19.373 12.7V14.009H26.89V12.709C26.89 12.5233 26.9637 12.3453 27.095 12.214C27.2263 12.0827 27.4043 12.009 27.59 12.009C27.7757 12.009 27.9537 12.0827 28.085 12.214C28.2162 12.3453 28.29 12.5233 28.29 12.709V14.009H31C31.5303 14.009 32.0388 14.2196 32.4139 14.5944C32.7889 14.9693 32.9997 15.4777 33 16.008V30.001C32.9997 30.5313 32.7889 31.0397 32.4139 31.4146C32.0388 31.7894 31.5303 32 31 32H15C14.4697 32 13.9612 31.7894 13.5861 31.4146C13.2111 31.0397 13.0003 30.5313 13 30.001V16.008C13.0003 15.4777 13.2111 14.9693 13.5861 14.5944C13.9612 14.2196 14.4697 14.009 15 14.009H17.973V12.699C17.9733 12.5135 18.0471 12.3357 18.1784 12.2047C18.3096 12.0736 18.4875 12 18.673 12ZM14.4 19.742V30.001C14.4 30.0798 14.4155 30.1578 14.4457 30.2306C14.4758 30.3034 14.52 30.3695 14.5757 30.4253C14.6315 30.481 14.6976 30.5252 14.7704 30.5553C14.8432 30.5855 14.9212 30.601 15 30.601H31C31.0788 30.601 31.1568 30.5855 31.2296 30.5553C31.3024 30.5252 31.3685 30.481 31.4243 30.4253C31.48 30.3695 31.5242 30.3034 31.5543 30.2306C31.5845 30.1578 31.6 30.0798 31.6 30.001V19.756L14.4 19.742ZM19.667 26.619V28.285H18V26.619H19.667ZM23.833 26.619V28.285H22.167V26.619H23.833ZM28 26.619V28.285H26.333V26.619H28ZM19.667 22.642V24.308H18V22.642H19.667ZM23.833 22.642V24.308H22.167V22.642H23.833ZM28 22.642V24.308H26.333V22.642H28ZM17.973 15.408H15C14.9212 15.408 14.8432 15.4235 14.7704 15.4537C14.6976 15.4838 14.6315 15.528 14.5757 15.5837C14.52 15.6395 14.4758 15.7056 14.4457 15.7784C14.4155 15.8512 14.4 15.9292 14.4 16.008V18.343L31.6 18.357V16.008C31.6 15.9292 31.5845 15.8512 31.5543 15.7784C31.5242 15.7056 31.48 15.6395 31.4243 15.5837C31.3685 15.528 31.3024 15.4838 31.2296 15.4537C31.1568 15.4235 31.0788 15.408 31 15.408H28.29V16.337C28.29 16.5227 28.2162 16.7007 28.085 16.832C27.9537 16.9633 27.7757 17.037 27.59 17.037C27.4043 17.037 27.2263 16.9633 27.095 16.832C26.9637 16.7007 26.89 16.5227 26.89 16.337V15.408H19.373V16.328C19.373 16.5137 19.2993 16.6917 19.168 16.823C19.0367 16.9543 18.8587 17.028 18.673 17.028C18.4873 17.028 18.3093 16.9543 18.178 16.823C18.0467 16.6917 17.973 16.5137 17.973 16.328V15.408Z" fill="black"/>
    </g>
    </g>
    <rect x="0.5" y="0.5" width="44" height="44" rx="1.5" stroke="#848484"/>
    <defs>
    <clipPath id="clip0_102_787">
    <rect width="45" height="45" rx="2" fill="white"/>
    </clipPath>
    <clipPath id="clip1_102_787">
    <rect width="20" height="20" fill="white" transform="translate(13 12)"/>
    </clipPath>
    </defs>
    </svg>
    