<svg width="46" height="46" viewBox="0 0 46 46" fill="none" xmlns="http://www.w3.org/2000/svg">
    <circle cx="23" cy="23" r="23" fill="white"/>
    <circle cx="23" cy="23" r="22" stroke="#777777" stroke-opacity="0.22" stroke-width="2"/>
    <path d="M33.5 23C33.5006 23.2546 33.4353 23.5051 33.3105 23.7271C33.1856 23.949 33.0055 24.1348 32.7875 24.2665L19.28 32.5297C19.0523 32.6691 18.7914 32.7452 18.5244 32.7502C18.2575 32.7551 17.994 32.6887 17.7613 32.5578C17.5307 32.4289 17.3387 32.2409 17.2049 32.0132C17.0711 31.7855 17.0004 31.5263 17 31.2622V14.7378C17.0004 14.4737 17.0711 14.2144 17.2049 13.9867C17.3387 13.759 17.5307 13.5711 17.7613 13.4422C17.994 13.3112 18.2575 13.2448 18.5244 13.2498C18.7914 13.2547 19.0523 13.3308 19.28 13.4703L32.7875 21.7334C33.0055 21.8651 33.1856 22.051 33.3105 22.2729C33.4353 22.4949 33.5006 22.7453 33.5 23Z" fill="#3D3D3D"/>
    </svg>
    