<?xml version="1.0" standalone="no"?>
<!DOCTYPE svg PUBLIC "-//W3C//DTD SVG 20010904//EN"
 "http://www.w3.org/TR/2001/REC-SVG-20010904/DTD/svg10.dtd">
<svg version="1.0" xmlns="http://www.w3.org/2000/svg"
 width="123.000000pt" height="162.000000pt" viewBox="0 0 123.000000 162.000000"
 preserveAspectRatio="xMidYMid meet">

<g transform="translate(0.000000,162.000000) scale(0.100000,-0.100000)"
fill="#000000" stroke="none">
<path d="M550 1559 c-363 -340 -395 -376 -448 -492 -54 -117 -56 -131 -60
-599 l-3 -438 125 0 126 0 0 45 0 44 -77 3 -78 3 -3 345 c-3 393 4 458 63 576
19 40 56 96 83 125 59 66 332 319 344 319 12 0 204 -174 304 -275 60 -61 92
-103 118 -156 68 -140 71 -161 71 -569 l0 -365 -77 -3 -78 -3 0 -44 0 -45 125
0 125 0 0 393 c-1 423 -6 485 -54 611 -53 140 -111 207 -441 505 -49 44 -92
81 -95 81 -3 0 -34 -28 -70 -61z"/>
<path d="M540 1358 c-250 -234 -281 -273 -326 -405 -21 -60 -28 -104 -32 -195
l-5 -118 161 0 c145 0 161 -2 165 -17 2 -10 4 -92 3 -183 l-1 -165 -115 0
-115 0 -3 153 -3 152 -44 0 -45 0 0 -200 0 -200 80 0 80 0 0 -75 0 -75 45 0
45 0 0 56 c0 87 7 94 95 94 l75 0 0 275 0 275 -162 2 -163 3 -3 26 c-5 44 26
167 60 236 31 63 144 193 168 193 6 0 10 -70 10 -200 l0 -200 45 0 45 0 0 310
c0 171 -1 310 -2 310 -2 0 -28 -24 -58 -52z"/>
<path d="M650 796 l0 -615 78 -3 77 -3 3 -72 3 -73 44 0 45 0 0 63 c0 36 5 68
12 75 7 7 42 12 86 12 l74 0 -5 342 c-5 375 -7 393 -68 517 -32 64 -115 156
-286 315 l-63 58 0 -616z m174 324 c36 -39 78 -94 92 -123 50 -97 54 -130 54
-440 l0 -288 -112 3 -113 3 -3 458 c-1 262 2 457 7 457 5 0 38 -32 75 -70z"/>
<path d="M810 685 l0 -45 45 0 45 0 0 45 0 45 -45 0 -45 0 0 -45z"/>
<path d="M490 75 l0 -45 135 0 135 0 0 45 0 45 -135 0 -135 0 0 -45z"/>
</g>
</svg>
